<?xml version="1.0" encoding="utf-8"?>
<!-- Generator: Adobe Illustrator 21.0.0, SVG Export Plug-In . SVG Version: 6.00 Build 0)  -->
<svg version="1.1" id="Capa_1" xmlns="http://www.w3.org/2000/svg" xmlns:xlink="http://www.w3.org/1999/xlink" x="0px" y="0px"
	 viewBox="0 0 176.5 192.5" style="enable-background:new 0 0 176.5 192.5;" xml:space="preserve">
<style type="text/css">
	.st0{fill:none;stroke:#1D1D1B;stroke-width:0.5;stroke-miterlimit:10;}
</style>
<g>
	<rect x="0.2" y="0.2" class="st0" width="16" height="16"/>
	<rect x="16.2" y="0.2" class="st0" width="16" height="16"/>
	<rect x="32.2" y="0.2" class="st0" width="16" height="16"/>
	<rect x="48.2" y="0.2" class="st0" width="16" height="16"/>
	<rect x="64.2" y="0.2" class="st0" width="16" height="16"/>
	<rect x="80.2" y="0.2" class="st0" width="16" height="16"/>
	<rect x="96.2" y="0.2" class="st0" width="16" height="16"/>
	<rect x="112.2" y="0.2" class="st0" width="16" height="16"/>
	<rect x="128.2" y="0.2" class="st0" width="16" height="16"/>
	<rect x="144.2" y="0.2" class="st0" width="16" height="16"/>
	<rect x="160.2" y="0.2" class="st0" width="16" height="16"/>
	<rect x="0.2" y="16.2" class="st0" width="16" height="16"/>
	<rect x="16.2" y="16.2" class="st0" width="16" height="16"/>
	<rect x="32.2" y="16.2" class="st0" width="16" height="16"/>
	<rect x="48.2" y="16.2" class="st0" width="16" height="16"/>
	<rect x="64.2" y="16.2" class="st0" width="16" height="16"/>
	<rect x="80.2" y="16.2" class="st0" width="16" height="16"/>
	<rect x="96.2" y="16.2" class="st0" width="16" height="16"/>
	<rect x="112.2" y="16.2" class="st0" width="16" height="16"/>
	<rect x="128.2" y="16.2" class="st0" width="16" height="16"/>
	<rect x="144.2" y="16.2" class="st0" width="16" height="16"/>
	<rect x="160.2" y="16.2" class="st0" width="16" height="16"/>
	<rect x="0.2" y="32.2" class="st0" width="16" height="16"/>
	<rect x="16.2" y="32.2" class="st0" width="16" height="16"/>
	<rect x="32.2" y="32.2" class="st0" width="16" height="16"/>
	<rect x="48.2" y="32.2" class="st0" width="16" height="16"/>
	<rect x="64.2" y="32.2" class="st0" width="16" height="16"/>
	<rect x="80.2" y="32.2" class="st0" width="16" height="16"/>
	<rect x="96.2" y="32.2" class="st0" width="16" height="16"/>
	<rect x="112.2" y="32.2" class="st0" width="16" height="16"/>
	<rect x="128.2" y="32.2" class="st0" width="16" height="16"/>
	<rect x="144.2" y="32.2" class="st0" width="16" height="16"/>
	<rect x="160.2" y="32.2" class="st0" width="16" height="16"/>
	<rect x="0.2" y="48.2" class="st0" width="16" height="16"/>
	<rect x="16.2" y="48.2" class="st0" width="16" height="16"/>
	<rect x="32.2" y="48.2" class="st0" width="16" height="16"/>
	<rect x="48.2" y="48.2" class="st0" width="16" height="16"/>
	<rect x="64.2" y="48.2" class="st0" width="16" height="16"/>
	<rect x="80.2" y="48.2" class="st0" width="16" height="16"/>
	<rect x="96.2" y="48.2" class="st0" width="16" height="16"/>
	<rect x="112.2" y="48.2" class="st0" width="16" height="16"/>
	<rect x="128.2" y="48.2" class="st0" width="16" height="16"/>
	<rect x="144.2" y="48.2" class="st0" width="16" height="16"/>
	<rect x="160.2" y="48.2" class="st0" width="16" height="16"/>
	<rect x="0.2" y="64.2" class="st0" width="16" height="16"/>
	<rect x="16.2" y="64.2" class="st0" width="16" height="16"/>
	<rect x="32.2" y="64.2" class="st0" width="16" height="16"/>
	<rect x="48.2" y="64.2" class="st0" width="16" height="16"/>
	<rect x="64.2" y="64.2" class="st0" width="16" height="16"/>
	<rect x="80.2" y="64.2" class="st0" width="16" height="16"/>
	<rect x="96.2" y="64.2" class="st0" width="16" height="16"/>
	<rect x="112.2" y="64.2" class="st0" width="16" height="16"/>
	<rect x="128.2" y="64.2" class="st0" width="16" height="16"/>
	<rect x="144.2" y="64.2" class="st0" width="16" height="16"/>
	<rect x="160.2" y="64.2" class="st0" width="16" height="16"/>
	<rect x="0.2" y="80.2" class="st0" width="16" height="16"/>
	<rect x="16.2" y="80.2" class="st0" width="16" height="16"/>
	<rect x="32.2" y="80.2" class="st0" width="16" height="16"/>
	<rect x="48.2" y="80.2" class="st0" width="16" height="16"/>
	<rect x="64.2" y="80.2" class="st0" width="16" height="16"/>
	<rect x="80.2" y="80.2" class="st0" width="16" height="16"/>
	<rect x="96.2" y="80.2" class="st0" width="16" height="16"/>
	<rect x="112.2" y="80.2" class="st0" width="16" height="16"/>
	<rect x="128.2" y="80.2" class="st0" width="16" height="16"/>
	<rect x="144.2" y="80.2" class="st0" width="16" height="16"/>
	<rect x="160.2" y="80.2" class="st0" width="16" height="16"/>
	<rect x="0.2" y="96.2" class="st0" width="16" height="16"/>
	<rect x="16.2" y="96.2" class="st0" width="16" height="16"/>
	<rect x="32.2" y="96.2" class="st0" width="16" height="16"/>
	<rect x="48.2" y="96.2" class="st0" width="16" height="16"/>
	<rect x="64.2" y="96.2" class="st0" width="16" height="16"/>
	<rect x="80.2" y="96.2" class="st0" width="16" height="16"/>
	<rect x="96.2" y="96.2" class="st0" width="16" height="16"/>
	<rect x="112.2" y="96.2" class="st0" width="16" height="16"/>
	<rect x="128.2" y="96.2" class="st0" width="16" height="16"/>
	<rect x="144.2" y="96.2" class="st0" width="16" height="16"/>
	<rect x="160.2" y="96.2" class="st0" width="16" height="16"/>
	<rect x="0.2" y="112.2" class="st0" width="16" height="16"/>
	<rect x="16.2" y="112.2" class="st0" width="16" height="16"/>
	<rect x="32.2" y="112.2" class="st0" width="16" height="16"/>
	<rect x="48.2" y="112.2" class="st0" width="16" height="16"/>
	<rect x="64.2" y="112.2" class="st0" width="16" height="16"/>
	<rect x="80.2" y="112.2" class="st0" width="16" height="16"/>
	<rect x="96.2" y="112.2" class="st0" width="16" height="16"/>
	<rect x="112.2" y="112.2" class="st0" width="16" height="16"/>
	<rect x="128.2" y="112.2" class="st0" width="16" height="16"/>
	<rect x="144.2" y="112.2" class="st0" width="16" height="16"/>
	<rect x="160.2" y="112.2" class="st0" width="16" height="16"/>
	<rect x="0.2" y="128.2" class="st0" width="16" height="16"/>
	<rect x="16.2" y="128.2" class="st0" width="16" height="16"/>
	<rect x="32.2" y="128.2" class="st0" width="16" height="16"/>
	<rect x="48.2" y="128.2" class="st0" width="16" height="16"/>
	<rect x="64.2" y="128.2" class="st0" width="16" height="16"/>
	<rect x="80.2" y="128.2" class="st0" width="16" height="16"/>
	<rect x="96.2" y="128.2" class="st0" width="16" height="16"/>
	<rect x="112.2" y="128.2" class="st0" width="16" height="16"/>
	<rect x="128.2" y="128.2" class="st0" width="16" height="16"/>
	<rect x="144.2" y="128.2" class="st0" width="16" height="16"/>
	<rect x="160.2" y="128.2" class="st0" width="16" height="16"/>
	<rect x="0.2" y="144.2" class="st0" width="16" height="16"/>
	<rect x="16.2" y="144.2" class="st0" width="16" height="16"/>
	<rect x="32.2" y="144.2" class="st0" width="16" height="16"/>
	<rect x="48.2" y="144.2" class="st0" width="16" height="16"/>
	<rect x="64.2" y="144.2" class="st0" width="16" height="16"/>
	<rect x="80.2" y="144.2" class="st0" width="16" height="16"/>
	<rect x="96.2" y="144.2" class="st0" width="16" height="16"/>
	<rect x="112.2" y="144.2" class="st0" width="16" height="16"/>
	<rect x="128.2" y="144.2" class="st0" width="16" height="16"/>
	<rect x="144.2" y="144.2" class="st0" width="16" height="16"/>
	<rect x="160.2" y="144.2" class="st0" width="16" height="16"/>
	<rect x="0.2" y="160.2" class="st0" width="16" height="16"/>
	<rect x="16.2" y="160.2" class="st0" width="16" height="16"/>
	<rect x="32.2" y="160.2" class="st0" width="16" height="16"/>
	<rect x="48.2" y="160.2" class="st0" width="16" height="16"/>
	<rect x="64.2" y="160.2" class="st0" width="16" height="16"/>
	<rect x="80.2" y="160.2" class="st0" width="16" height="16"/>
	<rect x="96.2" y="160.2" class="st0" width="16" height="16"/>
	<rect x="112.2" y="160.2" class="st0" width="16" height="16"/>
	<rect x="128.2" y="160.2" class="st0" width="16" height="16"/>
	<rect x="144.2" y="160.2" class="st0" width="16" height="16"/>
	<rect x="160.2" y="160.2" class="st0" width="16" height="16"/>
	<rect x="0.2" y="176.2" class="st0" width="16" height="16"/>
	<rect x="16.2" y="176.2" class="st0" width="16" height="16"/>
	<rect x="32.2" y="176.2" class="st0" width="16" height="16"/>
	<rect x="48.2" y="176.2" class="st0" width="16" height="16"/>
	<rect x="64.2" y="176.2" class="st0" width="16" height="16"/>
	<rect x="80.2" y="176.2" class="st0" width="16" height="16"/>
	<rect x="96.2" y="176.2" class="st0" width="16" height="16"/>
	<rect x="112.2" y="176.2" class="st0" width="16" height="16"/>
	<rect x="128.2" y="176.2" class="st0" width="16" height="16"/>
	<rect x="144.2" y="176.2" class="st0" width="16" height="16"/>
	<rect x="160.2" y="176.2" class="st0" width="16" height="16"/>
</g>
</svg>
